<svg xmlns="http://www.w3.org/2000/svg" viewBox="0 0 1300.00 390.00">
  <style>
    .key-bg { fill: #f5f5f5; stroke: #d4d4d4; stroke-width: 1; }
    .key-index { fill: #171717; font-family: ui-monospace, SFMono-Regular, "SF Mono", Menlo, Consolas, "Liberation Mono", monospace; font-weight: 700; text-anchor: middle; dominant-baseline: central; }
    .key-part { font-family: system-ui, -apple-system, BlinkMacSystemFont, "Segoe UI", Roboto, sans-serif; text-anchor: middle; dominant-baseline: central; }
    @media (prefers-color-scheme: dark) {
      .key-bg { fill: #2a2a2a; stroke: #404040; }
      .key-index { fill: #e5e5e5; }
    }
  </style>
  <g>
    <path class="key-bg" d="M 26.00,22.00 L 84.00,22.00 Q 88.00,22.00 88.00,26.00 L 88.00,84.00 Q 88.00,88.00 84.00,88.00 L 26.00,88.00 Q 22.00,88.00 22.00,84.00 L 22.00,26.00 Q 22.00,22.00 26.00,22.00 Z" />
    <path class="key-bg" d="M 96.00,22.00 L 154.00,22.00 Q 158.00,22.00 158.00,26.00 L 158.00,84.00 Q 158.00,88.00 154.00,88.00 L 96.00,88.00 Q 92.00,88.00 92.00,84.00 L 92.00,26.00 Q 92.00,22.00 96.00,22.00 Z" />
    <path class="key-bg" d="M 166.00,22.00 L 224.00,22.00 Q 228.00,22.00 228.00,26.00 L 228.00,84.00 Q 228.00,88.00 224.00,88.00 L 166.00,88.00 Q 162.00,88.00 162.00,84.00 L 162.00,26.00 Q 162.00,22.00 166.00,22.00 Z" />
    <path class="key-bg" d="M 236.00,22.00 L 294.00,22.00 Q 298.00,22.00 298.00,26.00 L 298.00,84.00 Q 298.00,88.00 294.00,88.00 L 236.00,88.00 Q 232.00,88.00 232.00,84.00 L 232.00,26.00 Q 232.00,22.00 236.00,22.00 Z" />
    <path class="key-bg" d="M 306.00,22.00 L 364.00,22.00 Q 368.00,22.00 368.00,26.00 L 368.00,84.00 Q 368.00,88.00 364.00,88.00 L 306.00,88.00 Q 302.00,88.00 302.00,84.00 L 302.00,26.00 Q 302.00,22.00 306.00,22.00 Z" />
    <path class="key-bg" d="M 376.00,22.00 L 434.00,22.00 Q 438.00,22.00 438.00,26.00 L 438.00,84.00 Q 438.00,88.00 434.00,88.00 L 376.00,88.00 Q 372.00,88.00 372.00,84.00 L 372.00,26.00 Q 372.00,22.00 376.00,22.00 Z" />
    <path class="key-bg" d="M 446.00,22.00 L 504.00,22.00 Q 508.00,22.00 508.00,26.00 L 508.00,84.00 Q 508.00,88.00 504.00,88.00 L 446.00,88.00 Q 442.00,88.00 442.00,84.00 L 442.00,26.00 Q 442.00,22.00 446.00,22.00 Z" />
    <path class="key-bg" d="M 516.00,22.00 L 574.00,22.00 Q 578.00,22.00 578.00,26.00 L 578.00,84.00 Q 578.00,88.00 574.00,88.00 L 516.00,88.00 Q 512.00,88.00 512.00,84.00 L 512.00,26.00 Q 512.00,22.00 516.00,22.00 Z" />
    <path class="key-bg" d="M 586.00,22.00 L 644.00,22.00 Q 648.00,22.00 648.00,26.00 L 648.00,84.00 Q 648.00,88.00 644.00,88.00 L 586.00,88.00 Q 582.00,88.00 582.00,84.00 L 582.00,26.00 Q 582.00,22.00 586.00,22.00 Z" />
    <path class="key-bg" d="M 656.00,22.00 L 714.00,22.00 Q 718.00,22.00 718.00,26.00 L 718.00,84.00 Q 718.00,88.00 714.00,88.00 L 656.00,88.00 Q 652.00,88.00 652.00,84.00 L 652.00,26.00 Q 652.00,22.00 656.00,22.00 Z" />
    <path class="key-bg" d="M 726.00,22.00 L 784.00,22.00 Q 788.00,22.00 788.00,26.00 L 788.00,84.00 Q 788.00,88.00 784.00,88.00 L 726.00,88.00 Q 722.00,88.00 722.00,84.00 L 722.00,26.00 Q 722.00,22.00 726.00,22.00 Z" />
    <path class="key-bg" d="M 796.00,22.00 L 854.00,22.00 Q 858.00,22.00 858.00,26.00 L 858.00,84.00 Q 858.00,88.00 854.00,88.00 L 796.00,88.00 Q 792.00,88.00 792.00,84.00 L 792.00,26.00 Q 792.00,22.00 796.00,22.00 Z" />
    <path class="key-bg" d="M 866.00,22.00 L 924.00,22.00 Q 928.00,22.00 928.00,26.00 L 928.00,84.00 Q 928.00,88.00 924.00,88.00 L 866.00,88.00 Q 862.00,88.00 862.00,84.00 L 862.00,26.00 Q 862.00,22.00 866.00,22.00 Z" />
    <path class="key-bg" d="M 936.00,22.00 L 994.00,22.00 Q 998.00,22.00 998.00,26.00 L 998.00,84.00 Q 998.00,88.00 994.00,88.00 L 936.00,88.00 Q 932.00,88.00 932.00,84.00 L 932.00,26.00 Q 932.00,22.00 936.00,22.00 Z" />
    <path class="key-bg" d="M 1006.00,22.00 L 1064.00,22.00 Q 1068.00,22.00 1068.00,26.00 L 1068.00,84.00 Q 1068.00,88.00 1064.00,88.00 L 1006.00,88.00 Q 1002.00,88.00 1002.00,84.00 L 1002.00,26.00 Q 1002.00,22.00 1006.00,22.00 Z" />
    <path class="key-bg" d="M 1076.00,22.00 L 1134.00,22.00 Q 1138.00,22.00 1138.00,26.00 L 1138.00,84.00 Q 1138.00,88.00 1134.00,88.00 L 1076.00,88.00 Q 1072.00,88.00 1072.00,84.00 L 1072.00,26.00 Q 1072.00,22.00 1076.00,22.00 Z" />
    <path class="key-bg" d="M 1146.00,22.00 L 1204.00,22.00 Q 1208.00,22.00 1208.00,26.00 L 1208.00,84.00 Q 1208.00,88.00 1204.00,88.00 L 1146.00,88.00 Q 1142.00,88.00 1142.00,84.00 L 1142.00,26.00 Q 1142.00,22.00 1146.00,22.00 Z" />
    <path class="key-bg" d="M 1216.00,22.00 L 1274.00,22.00 Q 1278.00,22.00 1278.00,26.00 L 1278.00,84.00 Q 1278.00,88.00 1274.00,88.00 L 1216.00,88.00 Q 1212.00,88.00 1212.00,84.00 L 1212.00,26.00 Q 1212.00,22.00 1216.00,22.00 Z" />
    <path class="key-bg" d="M 26.00,92.00 L 84.00,92.00 Q 88.00,92.00 88.00,96.00 L 88.00,154.00 Q 88.00,158.00 84.00,158.00 L 26.00,158.00 Q 22.00,158.00 22.00,154.00 L 22.00,96.00 Q 22.00,92.00 26.00,92.00 Z" />
    <path class="key-bg" d="M 96.00,92.00 L 154.00,92.00 Q 158.00,92.00 158.00,96.00 L 158.00,154.00 Q 158.00,158.00 154.00,158.00 L 96.00,158.00 Q 92.00,158.00 92.00,154.00 L 92.00,96.00 Q 92.00,92.00 96.00,92.00 Z" />
    <path class="key-bg" d="M 166.00,92.00 L 224.00,92.00 Q 228.00,92.00 228.00,96.00 L 228.00,154.00 Q 228.00,158.00 224.00,158.00 L 166.00,158.00 Q 162.00,158.00 162.00,154.00 L 162.00,96.00 Q 162.00,92.00 166.00,92.00 Z" />
    <path class="key-bg" d="M 236.00,92.00 L 294.00,92.00 Q 298.00,92.00 298.00,96.00 L 298.00,154.00 Q 298.00,158.00 294.00,158.00 L 236.00,158.00 Q 232.00,158.00 232.00,154.00 L 232.00,96.00 Q 232.00,92.00 236.00,92.00 Z" />
    <path class="key-bg" d="M 306.00,92.00 L 364.00,92.00 Q 368.00,92.00 368.00,96.00 L 368.00,154.00 Q 368.00,158.00 364.00,158.00 L 306.00,158.00 Q 302.00,158.00 302.00,154.00 L 302.00,96.00 Q 302.00,92.00 306.00,92.00 Z" />
    <path class="key-bg" d="M 376.00,92.00 L 434.00,92.00 Q 438.00,92.00 438.00,96.00 L 438.00,154.00 Q 438.00,158.00 434.00,158.00 L 376.00,158.00 Q 372.00,158.00 372.00,154.00 L 372.00,96.00 Q 372.00,92.00 376.00,92.00 Z" />
    <path class="key-bg" d="M 446.00,92.00 L 504.00,92.00 Q 508.00,92.00 508.00,96.00 L 508.00,154.00 Q 508.00,158.00 504.00,158.00 L 446.00,158.00 Q 442.00,158.00 442.00,154.00 L 442.00,96.00 Q 442.00,92.00 446.00,92.00 Z" />
    <path class="key-bg" d="M 516.00,92.00 L 574.00,92.00 Q 578.00,92.00 578.00,96.00 L 578.00,154.00 Q 578.00,158.00 574.00,158.00 L 516.00,158.00 Q 512.00,158.00 512.00,154.00 L 512.00,96.00 Q 512.00,92.00 516.00,92.00 Z" />
    <path class="key-bg" d="M 586.00,92.00 L 644.00,92.00 Q 648.00,92.00 648.00,96.00 L 648.00,154.00 Q 648.00,158.00 644.00,158.00 L 586.00,158.00 Q 582.00,158.00 582.00,154.00 L 582.00,96.00 Q 582.00,92.00 586.00,92.00 Z" />
    <path class="key-bg" d="M 656.00,92.00 L 714.00,92.00 Q 718.00,92.00 718.00,96.00 L 718.00,154.00 Q 718.00,158.00 714.00,158.00 L 656.00,158.00 Q 652.00,158.00 652.00,154.00 L 652.00,96.00 Q 652.00,92.00 656.00,92.00 Z" />
    <path class="key-bg" d="M 726.00,92.00 L 784.00,92.00 Q 788.00,92.00 788.00,96.00 L 788.00,154.00 Q 788.00,158.00 784.00,158.00 L 726.00,158.00 Q 722.00,158.00 722.00,154.00 L 722.00,96.00 Q 722.00,92.00 726.00,92.00 Z" />
    <path class="key-bg" d="M 796.00,92.00 L 854.00,92.00 Q 858.00,92.00 858.00,96.00 L 858.00,154.00 Q 858.00,158.00 854.00,158.00 L 796.00,158.00 Q 792.00,158.00 792.00,154.00 L 792.00,96.00 Q 792.00,92.00 796.00,92.00 Z" />
    <path class="key-bg" d="M 866.00,92.00 L 924.00,92.00 Q 928.00,92.00 928.00,96.00 L 928.00,154.00 Q 928.00,158.00 924.00,158.00 L 866.00,158.00 Q 862.00,158.00 862.00,154.00 L 862.00,96.00 Q 862.00,92.00 866.00,92.00 Z" />
    <path class="key-bg" d="M 936.00,92.00 L 994.00,92.00 Q 998.00,92.00 998.00,96.00 L 998.00,154.00 Q 998.00,158.00 994.00,158.00 L 936.00,158.00 Q 932.00,158.00 932.00,154.00 L 932.00,96.00 Q 932.00,92.00 936.00,92.00 Z" />
    <path class="key-bg" d="M 1006.00,92.00 L 1064.00,92.00 Q 1068.00,92.00 1068.00,96.00 L 1068.00,154.00 Q 1068.00,158.00 1064.00,158.00 L 1006.00,158.00 Q 1002.00,158.00 1002.00,154.00 L 1002.00,96.00 Q 1002.00,92.00 1006.00,92.00 Z" />
    <path class="key-bg" d="M 1076.00,92.00 L 1134.00,92.00 Q 1138.00,92.00 1138.00,96.00 L 1138.00,154.00 Q 1138.00,158.00 1134.00,158.00 L 1076.00,158.00 Q 1072.00,158.00 1072.00,154.00 L 1072.00,96.00 Q 1072.00,92.00 1076.00,92.00 Z" />
    <path class="key-bg" d="M 1146.00,92.00 L 1204.00,92.00 Q 1208.00,92.00 1208.00,96.00 L 1208.00,154.00 Q 1208.00,158.00 1204.00,158.00 L 1146.00,158.00 Q 1142.00,158.00 1142.00,154.00 L 1142.00,96.00 Q 1142.00,92.00 1146.00,92.00 Z" />
    <path class="key-bg" d="M 1216.00,92.00 L 1274.00,92.00 Q 1278.00,92.00 1278.00,96.00 L 1278.00,154.00 Q 1278.00,158.00 1274.00,158.00 L 1216.00,158.00 Q 1212.00,158.00 1212.00,154.00 L 1212.00,96.00 Q 1212.00,92.00 1216.00,92.00 Z" />
    <path class="key-bg" d="M 26.00,162.00 L 101.50,162.00 Q 105.50,162.00 105.50,166.00 L 105.50,224.00 Q 105.50,228.00 101.50,228.00 L 26.00,228.00 Q 22.00,228.00 22.00,224.00 L 22.00,166.00 Q 22.00,162.00 26.00,162.00 Z" />
    <path class="key-bg" d="M 113.50,162.00 L 171.50,162.00 Q 175.50,162.00 175.50,166.00 L 175.50,224.00 Q 175.50,228.00 171.50,228.00 L 113.50,228.00 Q 109.50,228.00 109.50,224.00 L 109.50,166.00 Q 109.50,162.00 113.50,162.00 Z" />
    <path class="key-bg" d="M 183.50,162.00 L 241.50,162.00 Q 245.50,162.00 245.50,166.00 L 245.50,224.00 Q 245.50,228.00 241.50,228.00 L 183.50,228.00 Q 179.50,228.00 179.50,224.00 L 179.50,166.00 Q 179.50,162.00 183.50,162.00 Z" />
    <path class="key-bg" d="M 253.50,162.00 L 311.50,162.00 Q 315.50,162.00 315.50,166.00 L 315.50,224.00 Q 315.50,228.00 311.50,228.00 L 253.50,228.00 Q 249.50,228.00 249.50,224.00 L 249.50,166.00 Q 249.50,162.00 253.50,162.00 Z" />
    <path class="key-bg" d="M 323.50,162.00 L 381.50,162.00 Q 385.50,162.00 385.50,166.00 L 385.50,224.00 Q 385.50,228.00 381.50,228.00 L 323.50,228.00 Q 319.50,228.00 319.50,224.00 L 319.50,166.00 Q 319.50,162.00 323.50,162.00 Z" />
    <path class="key-bg" d="M 393.50,162.00 L 451.50,162.00 Q 455.50,162.00 455.50,166.00 L 455.50,224.00 Q 455.50,228.00 451.50,228.00 L 393.50,228.00 Q 389.50,228.00 389.50,224.00 L 389.50,166.00 Q 389.50,162.00 393.50,162.00 Z" />
    <path class="key-bg" d="M 463.50,162.00 L 521.50,162.00 Q 525.50,162.00 525.50,166.00 L 525.50,224.00 Q 525.50,228.00 521.50,228.00 L 463.50,228.00 Q 459.50,228.00 459.50,224.00 L 459.50,166.00 Q 459.50,162.00 463.50,162.00 Z" />
    <path class="key-bg" d="M 533.50,162.00 L 591.50,162.00 Q 595.50,162.00 595.50,166.00 L 595.50,224.00 Q 595.50,228.00 591.50,228.00 L 533.50,228.00 Q 529.50,228.00 529.50,224.00 L 529.50,166.00 Q 529.50,162.00 533.50,162.00 Z" />
    <path class="key-bg" d="M 603.50,162.00 L 661.50,162.00 Q 665.50,162.00 665.50,166.00 L 665.50,224.00 Q 665.50,228.00 661.50,228.00 L 603.50,228.00 Q 599.50,228.00 599.50,224.00 L 599.50,166.00 Q 599.50,162.00 603.50,162.00 Z" />
    <path class="key-bg" d="M 673.50,162.00 L 731.50,162.00 Q 735.50,162.00 735.50,166.00 L 735.50,224.00 Q 735.50,228.00 731.50,228.00 L 673.50,228.00 Q 669.50,228.00 669.50,224.00 L 669.50,166.00 Q 669.50,162.00 673.50,162.00 Z" />
    <path class="key-bg" d="M 743.50,162.00 L 801.50,162.00 Q 805.50,162.00 805.50,166.00 L 805.50,224.00 Q 805.50,228.00 801.50,228.00 L 743.50,228.00 Q 739.50,228.00 739.50,224.00 L 739.50,166.00 Q 739.50,162.00 743.50,162.00 Z" />
    <path class="key-bg" d="M 813.50,162.00 L 871.50,162.00 Q 875.50,162.00 875.50,166.00 L 875.50,224.00 Q 875.50,228.00 871.50,228.00 L 813.50,228.00 Q 809.50,228.00 809.50,224.00 L 809.50,166.00 Q 809.50,162.00 813.50,162.00 Z" />
    <path class="key-bg" d="M 883.50,162.00 L 994.00,162.00 Q 998.00,162.00 998.00,166.00 L 998.00,224.00 Q 998.00,228.00 994.00,228.00 L 883.50,228.00 Q 879.50,228.00 879.50,224.00 L 879.50,166.00 Q 879.50,162.00 883.50,162.00 Z" />
    <path class="key-bg" d="M 1006.00,162.00 L 1064.00,162.00 Q 1068.00,162.00 1068.00,166.00 L 1068.00,224.00 Q 1068.00,228.00 1064.00,228.00 L 1006.00,228.00 Q 1002.00,228.00 1002.00,224.00 L 1002.00,166.00 Q 1002.00,162.00 1006.00,162.00 Z" />
    <path class="key-bg" d="M 1076.00,162.00 L 1134.00,162.00 Q 1138.00,162.00 1138.00,166.00 L 1138.00,224.00 Q 1138.00,228.00 1134.00,228.00 L 1076.00,228.00 Q 1072.00,228.00 1072.00,224.00 L 1072.00,166.00 Q 1072.00,162.00 1076.00,162.00 Z" />
    <path class="key-bg" d="M 1146.00,162.00 L 1204.00,162.00 Q 1208.00,162.00 1208.00,166.00 L 1208.00,224.00 Q 1208.00,228.00 1204.00,228.00 L 1146.00,228.00 Q 1142.00,228.00 1142.00,224.00 L 1142.00,166.00 Q 1142.00,162.00 1146.00,162.00 Z" />
    <path class="key-bg" d="M 1216.00,162.00 L 1274.00,162.00 Q 1278.00,162.00 1278.00,166.00 L 1278.00,224.00 Q 1278.00,228.00 1274.00,228.00 L 1216.00,228.00 Q 1212.00,228.00 1212.00,224.00 L 1212.00,166.00 Q 1212.00,162.00 1216.00,162.00 Z" />
    <path class="key-bg" d="M 26.00,232.00 L 136.50,232.00 Q 140.50,232.00 140.50,236.00 L 140.50,294.00 Q 140.50,298.00 136.50,298.00 L 26.00,298.00 Q 22.00,298.00 22.00,294.00 L 22.00,236.00 Q 22.00,232.00 26.00,232.00 Z" />
    <path class="key-bg" d="M 148.50,232.00 L 206.50,232.00 Q 210.50,232.00 210.50,236.00 L 210.50,294.00 Q 210.50,298.00 206.50,298.00 L 148.50,298.00 Q 144.50,298.00 144.50,294.00 L 144.50,236.00 Q 144.50,232.00 148.50,232.00 Z" />
    <path class="key-bg" d="M 218.50,232.00 L 276.50,232.00 Q 280.50,232.00 280.50,236.00 L 280.50,294.00 Q 280.50,298.00 276.50,298.00 L 218.50,298.00 Q 214.50,298.00 214.50,294.00 L 214.50,236.00 Q 214.50,232.00 218.50,232.00 Z" />
    <path class="key-bg" d="M 288.50,232.00 L 346.50,232.00 Q 350.50,232.00 350.50,236.00 L 350.50,294.00 Q 350.50,298.00 346.50,298.00 L 288.50,298.00 Q 284.50,298.00 284.50,294.00 L 284.50,236.00 Q 284.50,232.00 288.50,232.00 Z" />
    <path class="key-bg" d="M 358.50,232.00 L 416.50,232.00 Q 420.50,232.00 420.50,236.00 L 420.50,294.00 Q 420.50,298.00 416.50,298.00 L 358.50,298.00 Q 354.50,298.00 354.50,294.00 L 354.50,236.00 Q 354.50,232.00 358.50,232.00 Z" />
    <path class="key-bg" d="M 428.50,232.00 L 486.50,232.00 Q 490.50,232.00 490.50,236.00 L 490.50,294.00 Q 490.50,298.00 486.50,298.00 L 428.50,298.00 Q 424.50,298.00 424.50,294.00 L 424.50,236.00 Q 424.50,232.00 428.50,232.00 Z" />
    <path class="key-bg" d="M 498.50,232.00 L 556.50,232.00 Q 560.50,232.00 560.50,236.00 L 560.50,294.00 Q 560.50,298.00 556.50,298.00 L 498.50,298.00 Q 494.50,298.00 494.50,294.00 L 494.50,236.00 Q 494.50,232.00 498.50,232.00 Z" />
    <path class="key-bg" d="M 568.50,232.00 L 626.50,232.00 Q 630.50,232.00 630.50,236.00 L 630.50,294.00 Q 630.50,298.00 626.50,298.00 L 568.50,298.00 Q 564.50,298.00 564.50,294.00 L 564.50,236.00 Q 564.50,232.00 568.50,232.00 Z" />
    <path class="key-bg" d="M 638.50,232.00 L 696.50,232.00 Q 700.50,232.00 700.50,236.00 L 700.50,294.00 Q 700.50,298.00 696.50,298.00 L 638.50,298.00 Q 634.50,298.00 634.50,294.00 L 634.50,236.00 Q 634.50,232.00 638.50,232.00 Z" />
    <path class="key-bg" d="M 708.50,232.00 L 766.50,232.00 Q 770.50,232.00 770.50,236.00 L 770.50,294.00 Q 770.50,298.00 766.50,298.00 L 708.50,298.00 Q 704.50,298.00 704.50,294.00 L 704.50,236.00 Q 704.50,232.00 708.50,232.00 Z" />
    <path class="key-bg" d="M 778.50,232.00 L 836.50,232.00 Q 840.50,232.00 840.50,236.00 L 840.50,294.00 Q 840.50,298.00 836.50,298.00 L 778.50,298.00 Q 774.50,298.00 774.50,294.00 L 774.50,236.00 Q 774.50,232.00 778.50,232.00 Z" />
    <path class="key-bg" d="M 848.50,232.00 L 924.00,232.00 Q 928.00,232.00 928.00,236.00 L 928.00,294.00 Q 928.00,298.00 924.00,298.00 L 848.50,298.00 Q 844.50,298.00 844.50,294.00 L 844.50,236.00 Q 844.50,232.00 848.50,232.00 Z" />
    <path class="key-bg" d="M 936.00,232.00 L 994.00,232.00 Q 998.00,232.00 998.00,236.00 L 998.00,294.00 Q 998.00,298.00 994.00,298.00 L 936.00,298.00 Q 932.00,298.00 932.00,294.00 L 932.00,236.00 Q 932.00,232.00 936.00,232.00 Z" />
    <path class="key-bg" d="M 1006.00,232.00 L 1064.00,232.00 Q 1068.00,232.00 1068.00,236.00 L 1068.00,294.00 Q 1068.00,298.00 1064.00,298.00 L 1006.00,298.00 Q 1002.00,298.00 1002.00,294.00 L 1002.00,236.00 Q 1002.00,232.00 1006.00,232.00 Z" />
    <path class="key-bg" d="M 1076.00,232.00 L 1134.00,232.00 Q 1138.00,232.00 1138.00,236.00 L 1138.00,294.00 Q 1138.00,298.00 1134.00,298.00 L 1076.00,298.00 Q 1072.00,298.00 1072.00,294.00 L 1072.00,236.00 Q 1072.00,232.00 1076.00,232.00 Z" />
    <path class="key-bg" d="M 1146.00,232.00 L 1204.00,232.00 Q 1208.00,232.00 1208.00,236.00 L 1208.00,294.00 Q 1208.00,298.00 1204.00,298.00 L 1146.00,298.00 Q 1142.00,298.00 1142.00,294.00 L 1142.00,236.00 Q 1142.00,232.00 1146.00,232.00 Z" />
    <path class="key-bg" d="M 1216.00,232.00 L 1274.00,232.00 Q 1278.00,232.00 1278.00,236.00 L 1278.00,294.00 Q 1278.00,298.00 1274.00,298.00 L 1216.00,298.00 Q 1212.00,298.00 1212.00,294.00 L 1212.00,236.00 Q 1212.00,232.00 1216.00,232.00 Z" />
    <path class="key-bg" d="M 96.00,302.00 L 154.00,302.00 Q 158.00,302.00 158.00,306.00 L 158.00,364.00 Q 158.00,368.00 154.00,368.00 L 96.00,368.00 Q 92.00,368.00 92.00,364.00 L 92.00,306.00 Q 92.00,302.00 96.00,302.00 Z" />
    <path class="key-bg" d="M 166.00,302.00 L 224.00,302.00 Q 228.00,302.00 228.00,306.00 L 228.00,364.00 Q 228.00,368.00 224.00,368.00 L 166.00,368.00 Q 162.00,368.00 162.00,364.00 L 162.00,306.00 Q 162.00,302.00 166.00,302.00 Z" />
    <path class="key-bg" d="M 236.00,302.00 L 294.00,302.00 Q 298.00,302.00 298.00,306.00 L 298.00,364.00 Q 298.00,368.00 294.00,368.00 L 236.00,368.00 Q 232.00,368.00 232.00,364.00 L 232.00,306.00 Q 232.00,302.00 236.00,302.00 Z" />
    <path class="key-bg" d="M 306.00,302.00 L 381.50,302.00 Q 385.50,302.00 385.50,306.00 L 385.50,364.00 Q 385.50,368.00 381.50,368.00 L 306.00,368.00 Q 302.00,368.00 302.00,364.00 L 302.00,306.00 Q 302.00,302.00 306.00,302.00 Z" />
    <path class="key-bg" d="M 393.50,302.00 L 469.00,302.00 Q 473.00,302.00 473.00,306.00 L 473.00,364.00 Q 473.00,368.00 469.00,368.00 L 393.50,368.00 Q 389.50,368.00 389.50,364.00 L 389.50,306.00 Q 389.50,302.00 393.50,302.00 Z" />
    <path class="key-bg" d="M 481.00,302.00 L 556.50,302.00 Q 560.50,302.00 560.50,306.00 L 560.50,364.00 Q 560.50,368.00 556.50,368.00 L 481.00,368.00 Q 477.00,368.00 477.00,364.00 L 477.00,306.00 Q 477.00,302.00 481.00,302.00 Z" />
    <path class="key-bg" d="M 568.50,302.00 L 644.00,302.00 Q 648.00,302.00 648.00,306.00 L 648.00,364.00 Q 648.00,368.00 644.00,368.00 L 568.50,368.00 Q 564.50,368.00 564.50,364.00 L 564.50,306.00 Q 564.50,302.00 568.50,302.00 Z" />
    <path class="key-bg" d="M 656.00,302.00 L 714.00,302.00 Q 718.00,302.00 718.00,306.00 L 718.00,364.00 Q 718.00,368.00 714.00,368.00 L 656.00,368.00 Q 652.00,368.00 652.00,364.00 L 652.00,306.00 Q 652.00,302.00 656.00,302.00 Z" />
    <path class="key-bg" d="M 726.00,302.00 L 784.00,302.00 Q 788.00,302.00 788.00,306.00 L 788.00,364.00 Q 788.00,368.00 784.00,368.00 L 726.00,368.00 Q 722.00,368.00 722.00,364.00 L 722.00,306.00 Q 722.00,302.00 726.00,302.00 Z" />
    <path class="key-bg" d="M 796.00,302.00 L 854.00,302.00 Q 858.00,302.00 858.00,306.00 L 858.00,364.00 Q 858.00,368.00 854.00,368.00 L 796.00,368.00 Q 792.00,368.00 792.00,364.00 L 792.00,306.00 Q 792.00,302.00 796.00,302.00 Z" />
    <path class="key-bg" d="M 866.00,302.00 L 924.00,302.00 Q 928.00,302.00 928.00,306.00 L 928.00,364.00 Q 928.00,368.00 924.00,368.00 L 866.00,368.00 Q 862.00,368.00 862.00,364.00 L 862.00,306.00 Q 862.00,302.00 866.00,302.00 Z" />
    <path class="key-bg" d="M 936.00,302.00 L 994.00,302.00 Q 998.00,302.00 998.00,306.00 L 998.00,364.00 Q 998.00,368.00 994.00,368.00 L 936.00,368.00 Q 932.00,368.00 932.00,364.00 L 932.00,306.00 Q 932.00,302.00 936.00,302.00 Z" />
    <path class="key-bg" d="M 1006.00,302.00 L 1064.00,302.00 Q 1068.00,302.00 1068.00,306.00 L 1068.00,364.00 Q 1068.00,368.00 1064.00,368.00 L 1006.00,368.00 Q 1002.00,368.00 1002.00,364.00 L 1002.00,306.00 Q 1002.00,302.00 1006.00,302.00 Z" />
    <path class="key-bg" d="M 1076.00,302.00 L 1134.00,302.00 Q 1138.00,302.00 1138.00,306.00 L 1138.00,364.00 Q 1138.00,368.00 1134.00,368.00 L 1076.00,368.00 Q 1072.00,368.00 1072.00,364.00 L 1072.00,306.00 Q 1072.00,302.00 1076.00,302.00 Z" />
    <path class="key-bg" d="M 1146.00,302.00 L 1204.00,302.00 Q 1208.00,302.00 1208.00,306.00 L 1208.00,364.00 Q 1208.00,368.00 1204.00,368.00 L 1146.00,368.00 Q 1142.00,368.00 1142.00,364.00 L 1142.00,306.00 Q 1142.00,302.00 1146.00,302.00 Z" />
  </g>
  <g>
    <text class="key-index" x="55.00" y="55.00" font-size="36">0</text>
    <text class="key-index" x="125.00" y="55.00" font-size="36">1</text>
    <text class="key-index" x="195.00" y="55.00" font-size="36">2</text>
    <text class="key-index" x="265.00" y="55.00" font-size="36">3</text>
    <text class="key-index" x="335.00" y="55.00" font-size="36">4</text>
    <text class="key-index" x="405.00" y="55.00" font-size="36">5</text>
    <text class="key-index" x="475.00" y="55.00" font-size="36">6</text>
    <text class="key-index" x="545.00" y="55.00" font-size="36">7</text>
    <text class="key-index" x="615.00" y="55.00" font-size="36">8</text>
    <text class="key-index" x="685.00" y="55.00" font-size="36">9</text>
    <text class="key-index" x="755.00" y="55.00" font-size="36">10</text>
    <text class="key-index" x="825.00" y="55.00" font-size="36">11</text>
    <text class="key-index" x="895.00" y="55.00" font-size="36">12</text>
    <text class="key-index" x="965.00" y="55.00" font-size="36">13</text>
    <text class="key-index" x="1035.00" y="55.00" font-size="36">14</text>
    <text class="key-index" x="1105.00" y="55.00" font-size="36">15</text>
    <text class="key-index" x="1175.00" y="55.00" font-size="36">16</text>
    <text class="key-index" x="1245.00" y="55.00" font-size="36">17</text>
    <text class="key-index" x="55.00" y="125.00" font-size="36">18</text>
    <text class="key-index" x="125.00" y="125.00" font-size="36">19</text>
    <text class="key-index" x="195.00" y="125.00" font-size="36">20</text>
    <text class="key-index" x="265.00" y="125.00" font-size="36">21</text>
    <text class="key-index" x="335.00" y="125.00" font-size="36">22</text>
    <text class="key-index" x="405.00" y="125.00" font-size="36">23</text>
    <text class="key-index" x="475.00" y="125.00" font-size="36">24</text>
    <text class="key-index" x="545.00" y="125.00" font-size="36">25</text>
    <text class="key-index" x="615.00" y="125.00" font-size="36">26</text>
    <text class="key-index" x="685.00" y="125.00" font-size="36">27</text>
    <text class="key-index" x="755.00" y="125.00" font-size="36">28</text>
    <text class="key-index" x="825.00" y="125.00" font-size="36">29</text>
    <text class="key-index" x="895.00" y="125.00" font-size="36">30</text>
    <text class="key-index" x="965.00" y="125.00" font-size="36">31</text>
    <text class="key-index" x="1035.00" y="125.00" font-size="36">32</text>
    <text class="key-index" x="1105.00" y="125.00" font-size="36">33</text>
    <text class="key-index" x="1175.00" y="125.00" font-size="36">34</text>
    <text class="key-index" x="1245.00" y="125.00" font-size="36">35</text>
    <text class="key-index" x="63.75" y="195.00" font-size="36">36</text>
    <text class="key-index" x="142.50" y="195.00" font-size="36">37</text>
    <text class="key-index" x="212.50" y="195.00" font-size="36">38</text>
    <text class="key-index" x="282.50" y="195.00" font-size="36">39</text>
    <text class="key-index" x="352.50" y="195.00" font-size="36">40</text>
    <text class="key-index" x="422.50" y="195.00" font-size="36">41</text>
    <text class="key-index" x="492.50" y="195.00" font-size="36">42</text>
    <text class="key-index" x="562.50" y="195.00" font-size="36">43</text>
    <text class="key-index" x="632.50" y="195.00" font-size="36">44</text>
    <text class="key-index" x="702.50" y="195.00" font-size="36">45</text>
    <text class="key-index" x="772.50" y="195.00" font-size="36">46</text>
    <text class="key-index" x="842.50" y="195.00" font-size="36">47</text>
    <text class="key-index" x="938.75" y="195.00" font-size="36">48</text>
    <text class="key-index" x="1035.00" y="195.00" font-size="36">49</text>
    <text class="key-index" x="1105.00" y="195.00" font-size="36">50</text>
    <text class="key-index" x="1175.00" y="195.00" font-size="36">51</text>
    <text class="key-index" x="1245.00" y="195.00" font-size="36">52</text>
    <text class="key-index" x="81.25" y="265.00" font-size="36">53</text>
    <text class="key-index" x="177.50" y="265.00" font-size="36">54</text>
    <text class="key-index" x="247.50" y="265.00" font-size="36">55</text>
    <text class="key-index" x="317.50" y="265.00" font-size="36">56</text>
    <text class="key-index" x="387.50" y="265.00" font-size="36">57</text>
    <text class="key-index" x="457.50" y="265.00" font-size="36">58</text>
    <text class="key-index" x="527.50" y="265.00" font-size="36">59</text>
    <text class="key-index" x="597.50" y="265.00" font-size="36">60</text>
    <text class="key-index" x="667.50" y="265.00" font-size="36">61</text>
    <text class="key-index" x="737.50" y="265.00" font-size="36">62</text>
    <text class="key-index" x="807.50" y="265.00" font-size="36">63</text>
    <text class="key-index" x="886.25" y="265.00" font-size="36">64</text>
    <text class="key-index" x="965.00" y="265.00" font-size="36">65</text>
    <text class="key-index" x="1035.00" y="265.00" font-size="36">66</text>
    <text class="key-index" x="1105.00" y="265.00" font-size="36">67</text>
    <text class="key-index" x="1175.00" y="265.00" font-size="36">68</text>
    <text class="key-index" x="1245.00" y="265.00" font-size="36">69</text>
    <text class="key-index" x="125.00" y="335.00" font-size="36">70</text>
    <text class="key-index" x="195.00" y="335.00" font-size="36">71</text>
    <text class="key-index" x="265.00" y="335.00" font-size="36">72</text>
    <text class="key-index" x="343.75" y="335.00" font-size="36">73</text>
    <text class="key-index" x="431.25" y="335.00" font-size="36">74</text>
    <text class="key-index" x="518.75" y="335.00" font-size="36">75</text>
    <text class="key-index" x="606.25" y="335.00" font-size="36">76</text>
    <text class="key-index" x="685.00" y="335.00" font-size="36">77</text>
    <text class="key-index" x="755.00" y="335.00" font-size="36">78</text>
    <text class="key-index" x="825.00" y="335.00" font-size="36">79</text>
    <text class="key-index" x="895.00" y="335.00" font-size="36">80</text>
    <text class="key-index" x="965.00" y="335.00" font-size="36">81</text>
    <text class="key-index" x="1035.00" y="335.00" font-size="36">82</text>
    <text class="key-index" x="1105.00" y="335.00" font-size="36">83</text>
    <text class="key-index" x="1175.00" y="335.00" font-size="36">84</text>
  </g>
</svg>
